<svg width="149" height="36" viewBox="0 0 149 36" fill="none" xmlns="http://www.w3.org/2000/svg">
<path fill-rule="evenodd" clip-rule="evenodd" d="M10.6564 36C10.6169 36 10.5775 35.9951 10.5381 35.9859C10.3348 35.9367 10.1925 35.7694 10.1925 35.5782V21.5024H0.464127C0.297155 21.5024 0.142552 21.4208 0.0606124 21.2886C-0.0221005 21.1565 -0.0197816 20.9948 0.0652503 20.864L13.6294 0.205804C13.7361 0.0427036 13.9494 -0.0353315 14.1504 0.0152859C14.3522 0.0659032 14.4913 0.231816 14.4913 0.421631V14.5544H23.5356C23.701 14.5544 23.8541 14.6346 23.9368 14.7646C24.0203 14.894 24.0211 15.0543 23.9391 15.185L11.0599 35.7863C10.9764 35.9206 10.8202 36 10.6564 36Z" fill="#2B4DFF"/>
<path d="M37.488 29.5V9.5H42.032V29.5H37.488ZM30.736 10.14V6.14H48.784V10.14H30.736ZM56.719 30.108C55.2257 30.108 53.9137 29.852 52.783 29.34C51.6737 28.828 50.7457 28.1453 49.999 27.292C49.2737 26.4173 48.719 25.4467 48.335 24.38C47.9723 23.3133 47.791 22.2253 47.791 21.116V20.508C47.791 19.356 47.9723 18.2467 48.335 17.18C48.719 16.092 49.2737 15.132 49.999 14.3C50.7457 13.4467 51.663 12.7747 52.751 12.284C53.839 11.772 55.0977 11.516 56.527 11.516C58.4043 11.516 59.9723 11.932 61.231 12.764C62.511 13.5747 63.471 14.652 64.111 15.996C64.751 17.3187 65.071 18.748 65.071 20.284V21.884H49.679V19.164H62.287L60.911 20.508C60.911 19.3987 60.751 18.4493 60.431 17.66C60.111 16.8707 59.6203 16.2627 58.959 15.836C58.319 15.4093 57.5083 15.196 56.527 15.196C55.5457 15.196 54.7137 15.42 54.031 15.868C53.3483 16.316 52.8257 16.9667 52.463 17.82C52.1217 18.652 51.951 19.6547 51.951 20.828C51.951 21.916 52.1217 22.8867 52.463 23.74C52.8043 24.572 53.327 25.2333 54.031 25.724C54.735 26.1933 55.631 26.428 56.719 26.428C57.807 26.428 58.6923 26.2147 59.375 25.788C60.0577 25.34 60.495 24.796 60.687 24.156H64.783C64.527 25.3507 64.0363 26.396 63.311 27.292C62.5857 28.188 61.6577 28.8813 60.527 29.372C59.4177 29.8627 58.1483 30.108 56.719 30.108ZM75.5388 30.108C74.0241 30.108 72.7121 29.852 71.6028 29.34C70.5148 28.828 69.5974 28.1453 68.8508 27.292C68.1254 26.4387 67.5814 25.4787 67.2188 24.412C66.8561 23.3453 66.6748 22.2573 66.6748 21.148V20.54C66.6748 19.3667 66.8561 18.2467 67.2188 17.18C67.6028 16.092 68.1681 15.132 68.9148 14.3C69.6614 13.4467 70.5788 12.7747 71.6668 12.284C72.7761 11.772 74.0561 11.516 75.5068 11.516C77.0214 11.516 78.3761 11.8147 79.5708 12.412C80.7654 12.988 81.7148 13.7987 82.4188 14.844C83.1441 15.8893 83.5494 17.1053 83.6348 18.492H79.3148C79.2081 17.596 78.8241 16.8493 78.1628 16.252C77.5228 15.6547 76.6374 15.356 75.5068 15.356C74.5254 15.356 73.7041 15.5907 73.0428 16.06C72.4028 16.5293 71.9228 17.18 71.6028 18.012C71.2828 18.8227 71.1228 19.7613 71.1228 20.828C71.1228 21.852 71.2721 22.78 71.5708 23.612C71.8908 24.444 72.3708 25.0947 73.0108 25.564C73.6721 26.0333 74.5148 26.268 75.5388 26.268C76.3068 26.268 76.9681 26.1293 77.5228 25.852C78.0774 25.5747 78.5148 25.1907 78.8348 24.7C79.1761 24.2093 79.3894 23.6547 79.4748 23.036H83.7948C83.7094 24.444 83.2934 25.6813 82.5468 26.748C81.8214 27.7933 80.8508 28.6147 79.6348 29.212C78.4401 29.8093 77.0748 30.108 75.5388 30.108ZM96.606 30.076C95.1767 30.076 93.918 29.7773 92.83 29.18C91.742 28.5613 90.8887 27.6653 90.27 26.492C89.6513 25.3187 89.31 23.9 89.246 22.236H89.918V29.5H86.398V6.14H90.846V17.82L89.662 19.644C89.7473 17.852 90.0993 16.3587 90.718 15.164C91.358 13.9693 92.2113 13.0733 93.278 12.476C94.3447 11.8787 95.55 11.58 96.894 11.58C98.0887 11.58 99.1767 11.804 100.158 12.252C101.139 12.7 101.982 13.3293 102.686 14.14C103.39 14.9293 103.923 15.8573 104.286 16.924C104.67 17.9907 104.862 19.1533 104.862 20.412V21.084C104.862 22.3427 104.67 23.516 104.286 24.604C103.902 25.692 103.347 26.652 102.622 27.484C101.897 28.2947 101.022 28.9347 99.998 29.404C98.9953 29.852 97.8647 30.076 96.606 30.076ZM95.614 26.332C96.574 26.332 97.406 26.0973 98.11 25.628C98.8353 25.1373 99.4007 24.476 99.806 23.644C100.211 22.812 100.414 21.852 100.414 20.764C100.414 19.6547 100.211 18.6947 99.806 17.884C99.4007 17.0733 98.8353 16.444 98.11 15.996C97.406 15.548 96.574 15.324 95.614 15.324C94.7393 15.324 93.9287 15.516 93.182 15.9C92.4567 16.284 91.8593 16.8493 91.39 17.596C90.942 18.3427 90.718 19.2387 90.718 20.284V21.564C90.718 22.5667 90.9527 23.42 91.422 24.124C91.8913 24.828 92.4993 25.372 93.246 25.756C93.9927 26.14 94.782 26.332 95.614 26.332ZM116.165 30.108C114.629 30.108 113.274 29.8627 112.101 29.372C110.928 28.8813 109.936 28.22 109.125 27.388C108.314 26.5347 107.696 25.5747 107.269 24.508C106.864 23.4413 106.661 22.332 106.661 21.18V20.508C106.661 19.3133 106.874 18.1827 107.301 17.116C107.749 16.028 108.378 15.068 109.189 14.236C110.021 13.3827 111.024 12.7213 112.197 12.252C113.37 11.7613 114.693 11.516 116.165 11.516C117.637 11.516 118.96 11.7613 120.133 12.252C121.306 12.7213 122.298 13.3827 123.109 14.236C123.941 15.068 124.57 16.028 124.997 17.116C125.424 18.1827 125.637 19.3133 125.637 20.508V21.18C125.637 22.332 125.424 23.4413 124.997 24.508C124.592 25.5747 123.984 26.5347 123.173 27.388C122.362 28.22 121.37 28.8813 120.197 29.372C119.024 29.8627 117.68 30.108 116.165 30.108ZM116.165 26.3C117.253 26.3 118.17 26.0653 118.917 25.596C119.664 25.1053 120.229 24.4547 120.613 23.644C120.997 22.812 121.189 21.8733 121.189 20.828C121.189 19.7613 120.986 18.8227 120.581 18.012C120.197 17.18 119.621 16.5293 118.853 16.06C118.106 15.5693 117.21 15.324 116.165 15.324C115.12 15.324 114.213 15.5693 113.445 16.06C112.698 16.5293 112.122 17.18 111.717 18.012C111.312 18.8227 111.109 19.7613 111.109 20.828C111.109 21.8733 111.301 22.812 111.685 23.644C112.09 24.4547 112.666 25.1053 113.413 25.596C114.16 26.0653 115.077 26.3 116.165 26.3ZM128.796 29.5V6.14H133.244V29.5H128.796ZM126.62 9.468V6.14H133.244V9.468H126.62ZM144.914 29.724C143.314 29.724 141.991 29.5213 140.946 29.116C139.922 28.6893 139.154 27.9853 138.642 27.004C138.13 26.0013 137.874 24.6573 137.874 22.972L137.906 7.228H142.066L142.034 23.26C142.034 24.1133 142.258 24.7747 142.706 25.244C143.175 25.692 143.836 25.916 144.69 25.916H147.41V29.724H144.914ZM135.122 15.388V12.124H147.41V15.388H135.122Z" fill="#0A165E"/>
</svg>
